<svg xmlns="http://www.w3.org/2000/svg" viewBox="0 0 64 64">
  <!-- Water droplets flowing down representing "trickle" -->
  <defs>
    <linearGradient id="dropGradient" x1="0%" y1="0%" x2="0%" y2="100%">
      <stop offset="0%" style="stop-color:#3b82f6;stop-opacity:1" />
      <stop offset="100%" style="stop-color:#1e40af;stop-opacity:1" />
    </linearGradient>
  </defs>

  <!-- Top droplet -->
  <path d="M32 4 C32 4, 26 14, 26 18 C26 22.4, 28.7 26, 32 26 C35.3 26, 38 22.4, 38 18 C38 14, 32 4, 32 4 Z" fill="url(#dropGradient)" />

  <!-- Middle droplet -->
  <path d="M32 22 C32 22, 26 32, 26 36 C26 40.4, 28.7 44, 32 44 C35.3 44, 38 40.4, 38 36 C38 32, 32 22, 32 22 Z" fill="url(#dropGradient)" opacity="0.7" />

  <!-- Bottom droplet -->
  <path d="M32 40 C32 40, 26 50, 26 54 C26 58.4, 28.7 62, 32 62 C35.3 62, 38 58.4, 38 54 C38 50, 32 40, 32 40 Z" fill="url(#dropGradient)" opacity="0.4" />
</svg>
